<svg width="20" height="20" viewBox="0 0 20 20" fill="none" xmlns="http://www.w3.org/2000/svg">
<circle cx="10" cy="10" r="10" fill="white"/>
<circle cx="10" cy="10" r="9.5" stroke="black" stroke-opacity="0.12"/>
<path d="M14.1666 9.56884H15.2083V10.5881H14.1666C13.4479 10.5881 12.7395 10.4097 12.0833 10.0785C10.7812 10.741 9.21871 10.741 7.91663 10.0785C7.26038 10.4097 6.54683 10.5881 5.83329 10.5881H4.79163V9.56884H5.83329C6.55725 9.56884 7.28121 9.32932 7.91663 8.89104C9.18746 9.7625 10.8125 9.7625 12.0833 8.89104C12.7187 9.32932 13.4427 9.56884 14.1666 9.56884ZM14.1666 6.51111H15.2083V7.53035H14.1666C13.4479 7.53035 12.7395 7.35199 12.0833 7.02073C10.7812 7.68324 9.21871 7.68324 7.91663 7.02073C7.26038 7.35199 6.54683 7.53035 5.83329 7.53035H4.79163V6.51111H5.83329C6.55725 6.51111 7.28121 6.27159 7.91663 5.83331C9.18746 6.70477 10.8125 6.70477 12.0833 5.83331C12.7187 6.27159 13.4427 6.51111 14.1666 6.51111ZM14.1666 12.6266H15.2083V13.6458H14.1666C13.4479 13.6458 12.7395 13.4674 12.0833 13.1362C10.7812 13.7987 9.21871 13.7987 7.91663 13.1362C7.26038 13.4674 6.54683 13.6458 5.83329 13.6458H4.79163V12.6266H5.83329C6.55725 12.6266 7.28121 12.387 7.91663 11.9488C9.18746 12.8202 10.8125 12.8202 12.0833 11.9488C12.7187 12.387 13.4427 12.6266 14.1666 12.6266Z" fill="#4498C8"/>
</svg>
