<svg width="20" height="20" viewBox="0 0 20 20" fill="none" xmlns="http://www.w3.org/2000/svg">
<circle cx="10" cy="10" r="10" fill="white"/>
<circle cx="10" cy="10" r="9.5" stroke="black" stroke-opacity="0.12"/>
<path d="M12.3594 10.0313L11.8073 9.47917L9.26562 12.0208L8.16146 10.9167L7.60937 11.4688L9.26562 13.125L12.3594 10.0313ZM13.6458 5.83334H13.125V4.79167H12.0833V5.83334H7.91667V4.79167H6.875V5.83334H6.35417C5.77604 5.83334 5.31771 6.30209 5.31771 6.87501L5.3125 14.1667C5.3125 14.4429 5.42225 14.7079 5.6176 14.9032C5.81295 15.0986 6.0779 15.2083 6.35417 15.2083H13.6458C14.2188 15.2083 14.6875 14.7396 14.6875 14.1667V6.87501C14.6875 6.30209 14.2188 5.83334 13.6458 5.83334ZM13.6458 14.1667H6.35417V8.43751H13.6458V14.1667Z" fill="#8661BD"/>
</svg>
