<svg width="24" height="24" viewBox="0 0 24 24" fill="none" xmlns="http://www.w3.org/2000/svg">
<path fill-rule="evenodd" clip-rule="evenodd" d="M6 17.501C6 17.8988 6.15804 18.2803 6.43934 18.5616C6.72064 18.8429 7.10218 19.001 7.5 19.001H15.5C15.8978 19.001 16.2794 18.8429 16.5607 18.5616C16.842 18.2803 17 17.8988 17 17.501V13.501C17 13.3684 16.9473 13.2412 16.8536 13.1474C16.7598 13.0537 16.6326 13.001 16.5 13.001C16.3674 13.001 16.2402 13.0537 16.1464 13.1474C16.0527 13.2412 16 13.3684 16 13.501V17.501C16 17.6336 15.9473 17.7608 15.8536 17.8545C15.7598 17.9483 15.6326 18.001 15.5 18.001H7.5C7.36739 18.001 7.24021 17.9483 7.14645 17.8545C7.05268 17.7608 7 17.6336 7 17.501V9.50098C7 9.36837 7.05268 9.24119 7.14645 9.14742C7.24021 9.05366 7.36739 9.00098 7.5 9.00098H11.5C11.6326 9.00098 11.7598 8.9483 11.8536 8.85453C11.9473 8.76076 12 8.63358 12 8.50098C12 8.36837 11.9473 8.24119 11.8536 8.14742C11.7598 8.05366 11.6326 8.00098 11.5 8.00098H7.5C7.10218 8.00098 6.72064 8.15901 6.43934 8.44032C6.15804 8.72162 6 9.10315 6 9.50098V17.501ZM13 6.50098C13 6.36837 13.0527 6.24119 13.1464 6.14742C13.2402 6.05365 13.3674 6.00098 13.5 6.00098H18.5C18.6326 6.00098 18.7598 6.05365 18.8536 6.14742C18.9473 6.24119 19 6.36837 19 6.50098V11.501C19 11.6336 18.9473 11.7608 18.8536 11.8545C18.7598 11.9483 18.6326 12.001 18.5 12.001C18.3674 12.001 18.2402 11.9483 18.1464 11.8545C18.0527 11.7608 18 11.6336 18 11.501V7.00098H13.5C13.3674 7.00098 13.2402 6.9483 13.1464 6.85453C13.0527 6.76076 13 6.63358 13 6.50098Z" fill="#6C6D6E"/>
<path fill-rule="evenodd" clip-rule="evenodd" d="M18.854 6.14689C18.9006 6.19334 18.9375 6.24852 18.9627 6.30926C18.9879 6.37001 19.0009 6.43513 19.0009 6.50089C19.0009 6.56666 18.9879 6.63178 18.9627 6.69253C18.9375 6.75327 18.9006 6.80845 18.854 6.85489L10.854 14.8549C10.8075 14.9014 10.7523 14.9383 10.6916 14.9634C10.6308 14.9886 10.5657 15.0015 10.5 15.0015C10.4342 15.0015 10.3691 14.9886 10.3084 14.9634C10.2477 14.9383 10.1925 14.9014 10.146 14.8549C10.0995 14.8084 10.0626 14.7532 10.0375 14.6925C10.0123 14.6317 9.99936 14.5666 9.99936 14.5009C9.99936 14.4352 10.0123 14.37 10.0375 14.3093C10.0626 14.2486 10.0995 14.1934 10.146 14.1469L18.146 6.14689C18.1924 6.10033 18.2476 6.06339 18.3084 6.03818C18.3691 6.01297 18.4342 6 18.5 6C18.5658 6 18.6309 6.01297 18.6916 6.03818C18.7524 6.06339 18.8075 6.10033 18.854 6.14689Z" fill="#6C6D6E"/>
</svg>
