<?xml version="1.0" encoding="utf-8"?>
<!-- Svg Vector Icons : http://www.onlinewebfonts.com/icon -->
<!DOCTYPE svg PUBLIC "-//W3C//DTD SVG 1.1//EN" "http://www.w3.org/Graphics/SVG/1.1/DTD/svg11.dtd">
<svg version="1.1" xmlns="http://www.w3.org/2000/svg" xmlns:xlink="http://www.w3.org/1999/xlink" x="0px" y="0px" viewBox="0 0 256 256" enable-background="new 0 0 256 256" xml:space="preserve">
<metadata> Svg Vector Icons : http://www.onlinewebfonts.com/icon </metadata>
<g><g><path fill="#000000" d="M10,29.7h235.9v11.2H10V29.7L10,29.7z M10,91.5h89.8v11.2H10V92.1V91.5z M99.8,153.3H10v11.2h89.8V153.3L99.8,153.3z M10,215.1v11.2h118.4c-3.9-2.5-8.3-4.9-11.7-11.2H10L10,215.1z M234,140c5.6-31.5-15.8-61.6-47.7-67.3C154.4,67,124,88,118.4,119.5s15.8,61.6,47.7,67.3c14.4,2.6,28.5-0.4,40.1-7.2l32.7,41.4l7.1-4.9l-32.7-41.4C223.9,166.2,231.5,154.2,234,140L234,140z M206.4,169.2l-1.5,1.1l-1.6,1c-10.6,6.7-23.3,9.2-35.8,7.1c-27.1-4.8-44.4-32-39.6-58.8c4.7-26.8,29.7-43.3,56.9-38.4h0c13.2,2.3,24.6,9.6,32.3,20.4c7.7,10.8,10.6,23.9,8.3,36.9C223.2,150.7,216.5,161.6,206.4,169.2L206.4,169.2z"/></g></g>
</svg>