<svg width="12" height="12" viewBox="0 0 12 12" fill="none" xmlns="http://www.w3.org/2000/svg">
<path fill-rule="evenodd" clip-rule="evenodd" d="M5.99028 3.66667C6.02241 3.63447 6.06058 3.60891 6.1026 3.59147C6.14462 3.57404 6.18966 3.56506 6.23516 3.56506C6.28065 3.56506 6.3257 3.57404 6.36771 3.59147C6.40973 3.60891 6.4479 3.63447 6.48003 3.66667L8.55522 5.74187C8.58743 5.774 8.61299 5.81216 8.63042 5.85418C8.64786 5.8962 8.65683 5.94125 8.65683 5.98674C8.65683 6.03224 8.64786 6.07728 8.63042 6.1193C8.61299 6.16132 8.58743 6.19949 8.55522 6.23162L6.48003 8.30681C6.41508 8.37176 6.327 8.40824 6.23516 8.40824C6.14331 8.40824 6.05523 8.37176 5.99028 8.30681C5.92534 8.24187 5.88885 8.15378 5.88885 8.06194C5.88885 7.97009 5.92534 7.88201 5.99028 7.81707L7.8213 5.98674L5.99028 4.15642C5.95807 4.12429 5.93252 4.08613 5.91508 4.04411C5.89765 4.00209 5.88867 3.95704 5.88867 3.91155C5.88867 3.86605 5.89765 3.82101 5.91508 3.77899C5.93252 3.73697 5.95807 3.6988 5.99028 3.66667Z" fill="#F65936"/>
<path fill-rule="evenodd" clip-rule="evenodd" d="M3.12238 5.98674C3.12238 5.89501 3.15881 5.80703 3.22368 5.74217C3.28854 5.67731 3.37651 5.64087 3.46824 5.64087L7.9645 5.64087C8.05623 5.64087 8.1442 5.67731 8.20906 5.74217C8.27392 5.80703 8.31036 5.89501 8.31036 5.98674C8.31036 6.07846 8.27392 6.16644 8.20906 6.2313C8.1442 6.29616 8.05623 6.3326 7.9645 6.3326L3.46824 6.3326C3.37651 6.3326 3.28854 6.29616 3.22368 6.2313C3.15881 6.16644 3.12238 6.07846 3.12238 5.98674Z" fill="#F65936"/>
</svg>
