<svg width="94" height="98" viewBox="0 0 94 98" fill="none" xmlns="http://www.w3.org/2000/svg">
<path d="M25.47 4.683L26.515 4.246L29.678 11.826L34.032 10.006L34.448 11.002L29.048 13.258L25.47 4.683Z" fill="black"/>
<path d="M34.1 1.46999L40.342 0.28299L40.534 1.29199L35.405 2.26799L35.953 5.15399L40.613 4.26799L40.797 5.23899L36.137 6.12499L36.746 9.33099L42.023 8.32699L42.224 9.38799L35.834 10.603L34.1 1.46999Z" fill="black"/>
<path d="M43.538 0L50.663 0.199L50.634 1.226L47.638 1.142L47.405 9.411L46.272 9.379L46.505 1.111L43.509 1.027L43.538 0Z" fill="black"/>
<path d="M54.026 2.12999C53.867 3.05299 53.339 3.37099 52.741 3.35999L52.825 2.87299C53.13 2.80699 53.361 2.58299 53.456 2.03099L52.972 1.94799L53.193 0.666992L54.247 0.847992L54.026 2.12999Z" fill="black"/>
<path d="M54.934 7.11001L55.986 7.45601C55.636 8.99701 56.264 10.066 57.877 10.598C59.06 10.988 60.091 10.712 60.454 9.61401C60.853 8.40401 59.919 7.78101 58.504 6.93201C57.112 6.09001 55.969 5.22001 56.519 3.55401C57 2.09701 58.459 1.60601 60.192 2.17701C62.331 2.88201 62.844 4.29601 62.522 5.99701L61.506 5.66201C61.766 4.35101 61.185 3.46201 59.931 3.04901C58.772 2.66701 57.841 2.92101 57.539 3.83501C57.209 4.83501 58.067 5.44601 59.26 6.12601C60.806 7.02001 62.185 7.93801 61.53 9.92701C60.984 11.58 59.376 12.077 57.536 11.471C55.134 10.68 54.443 8.91901 54.934 7.11001Z" fill="black"/>
<path d="M65.775 11.349L66.687 11.978C65.918 13.359 66.219 14.562 67.618 15.528C68.643 16.237 69.711 16.263 70.369 15.311C71.093 14.263 70.371 13.402 69.252 12.186C68.153 10.985 67.3 9.82699 68.297 8.38299C69.169 7.11999 70.708 7.06299 72.211 8.09999C74.065 9.38099 74.16 10.884 73.372 12.425L72.492 11.817C73.111 10.632 72.804 9.61499 71.716 8.86399C70.711 8.16999 69.745 8.14998 69.198 8.94098C68.6 9.80798 69.251 10.637 70.205 11.628C71.438 12.922 72.503 14.194 71.314 15.917C70.325 17.35 68.641 17.372 67.046 16.271C64.962 14.831 64.795 12.945 65.775 11.349Z" fill="black"/>
<path d="M74.291 15.654C76.303 13.808 78.936 13.545 80.747 15.52C82.166 17.07 82.105 18.85 81.001 20.187L80.253 19.371C80.961 18.431 80.942 17.236 79.982 16.188C78.648 14.731 76.683 15.031 75.073 16.507C73.396 18.045 73.09 19.983 74.356 21.364C75.503 22.617 76.929 22.402 78.012 21.562L78.768 22.388C78.079 23.002 77.023 23.39 76.111 23.357C75.216 23.324 74.347 22.875 73.574 22.031C71.848 20.148 72.211 17.562 74.291 15.654Z" fill="black"/>
<path d="M85.173 21.385L87.257 25.034C88.043 26.41 87.682 27.847 86.361 28.601C85.379 29.161 84.442 29.145 83.589 28.385L83.555 28.405C83.717 29.37 83.296 29.943 82.142 30.703C80.893 31.53 80.641 31.849 80.621 32.049L80.576 32.074L79.971 31.014C80.024 30.766 80.31 30.56 81.615 29.7C82.757 28.947 82.913 28.25 82.314 27.201L81.072 25.027L77.662 26.971L77.1 25.989L85.173 21.385ZM81.896 24.558L83.219 26.874C83.843 27.966 84.72 28.19 85.635 27.669C86.617 27.108 86.864 26.389 86.209 25.241L84.855 22.87L81.896 24.558Z" fill="black"/>
<path d="M85.565 31.82C88.233 31.036 90.691 32.071 91.46 34.678C92.229 37.285 90.722 39.485 88.054 40.268C85.387 41.052 82.928 40.017 82.16 37.41C81.392 34.804 82.898 32.604 85.565 31.82ZM87.727 39.158C89.822 38.543 91.085 36.992 90.488 34.964C89.89 32.937 87.988 32.316 85.893 32.931C83.799 33.546 82.548 35.094 83.145 37.121C83.742 39.149 85.633 39.773 87.727 39.158Z" fill="black"/>
<path d="M92.965 42.585L93.046 43.715L84.849 44.304L85.187 49.013L84.11 49.09L83.692 43.251L92.965 42.585Z" fill="black"/>
<path d="M93.273 51.566L93.152 52.692L84.984 51.815L84.481 56.506L83.408 56.391L84.033 50.573L93.273 51.566Z" fill="black"/>
<path d="M91.333 63.143L88.811 69.801L87.851 69.438L88.912 66.638L81.177 63.706L81.578 62.647L89.313 65.578L90.374 62.778L91.333 63.143Z" fill="black"/>
<path d="M83.583 70.096C85.898 71.64 86.682 74.191 85.172 76.451C83.663 78.712 81.006 78.967 78.691 77.423C76.376 75.878 75.592 73.328 77.102 71.067C78.611 68.806 81.268 68.551 83.583 70.096ZM79.334 76.46C81.152 77.672 83.155 77.647 84.329 75.888C85.503 74.13 84.758 72.271 82.941 71.059C81.123 69.846 79.131 69.879 77.957 71.637C76.783 73.396 77.517 75.247 79.334 76.46Z" fill="black"/>
<path d="M77.76 84.971L76.891 85.697L71.626 79.389L68.004 82.41L67.312 81.582L71.804 77.836L77.76 84.971Z" fill="black"/>
<path d="M70.521 90.564L64.927 93.577L64.44 92.674L69.038 90.197L67.644 87.611L63.468 89.86L63 88.99L67.176 86.741L65.629 83.869L60.899 86.417L60.388 85.467L66.115 82.382L70.521 90.564Z" fill="black"/>
<path d="M58.877 95.701L57.652 96.042L51.951 87.975L53.139 87.645L54.823 90.12L58.28 89.159L58.452 86.168L59.568 85.858L58.877 95.701ZM58.221 90.16L55.382 90.949L57.215 93.678C57.525 94.132 57.956 94.836 57.956 94.836L57.98 94.829C57.98 94.829 58.001 94.013 58.027 93.452L58.221 90.16Z" fill="black"/>
<path d="M51.091 97.383L46.892 97.567C45.308 97.636 44.194 96.657 44.128 95.137C44.079 94.007 44.522 93.182 45.587 92.771L45.586 92.732C44.653 92.434 44.336 91.798 44.188 90.425C44.022 88.936 43.855 88.567 43.687 88.456L43.685 88.404L44.905 88.35C45.101 88.511 45.154 88.86 45.322 90.413C45.469 91.773 46.018 92.23 47.225 92.178L49.727 92.069L49.557 88.147L50.689 88.098L51.091 97.383ZM49.768 93.018L47.102 93.134C45.845 93.189 45.244 93.865 45.29 94.917C45.339 96.047 45.867 96.597 47.187 96.538L49.916 96.419L49.768 93.018Z" fill="black"/>
<path d="M40.463 97.404L39.289 97.177L36.481 90.054C36.275 89.524 36.064 88.755 36.064 88.755L36.04 88.75L34.593 96.272L33.555 96.072L35.311 86.94L36.448 87.159L39.279 94.301C39.477 94.803 39.716 95.564 39.716 95.564L39.74 95.569L41.182 88.072L42.22 88.272L40.463 97.404Z" fill="black"/>
<path d="M26.391 93.55L25.136 92.828L26.457 84.684L26.435 84.671L20.074 89.917L18.798 89.184L23.435 81.132L24.373 81.671L20.56 88.293L20.582 88.306C20.582 88.306 21.152 87.794 21.515 87.493L26.883 83.114L27.636 83.548L26.545 90.385C26.464 90.878 26.311 91.599 26.311 91.599L26.333 91.612L30.146 84.991L31.03 85.499L26.391 93.55Z" fill="black"/>
<path d="M18.883 83.436C16.907 85.392 14.254 85.648 12.342 83.716C10.43 81.784 10.712 79.133 12.688 77.177C14.664 75.221 17.317 74.966 19.229 76.898C21.141 78.828 20.859 81.479 18.883 83.436ZM13.502 77.999C11.951 79.535 11.575 81.5 13.062 83.003C14.549 84.505 16.518 84.149 18.069 82.613C19.62 81.077 19.986 79.121 18.5 77.619C17.014 76.117 15.053 76.464 13.502 77.999Z" fill="black"/>
<path d="M7.15201 77.359L4.97001 73.767C4.14701 72.412 4.47001 70.964 5.76901 70.175C6.73501 69.588 7.67201 69.578 8.54501 70.315L8.57901 70.295C8.39101 69.334 8.79601 68.749 9.92801 67.959C11.153 67.098 11.397 66.772 11.412 66.572L11.456 66.545L12.089 67.589C12.043 67.838 11.762 68.052 10.482 68.947C9.36101 69.73 9.22501 70.432 9.85201 71.465L11.152 73.606L14.506 71.57L15.094 72.538L7.15201 77.359ZM10.341 74.098L8.95601 71.818C8.30301 70.743 7.42101 70.542 6.52101 71.088C5.55501 71.675 5.32701 72.402 6.01301 73.531L7.43001 75.866L10.341 74.098Z" fill="black"/>
<path d="M2.096 68.186L0 62.183L0.969 61.844L2.691 66.777L5.463 65.808L3.899 61.327L4.831 61.002L6.396 65.482L9.475 64.406L7.704 59.33L8.722 58.975L10.868 65.12L2.096 68.186Z" fill="black"/>
</svg>
