<svg width="24" height="24" viewBox="0 0 24 24" fill="none" xmlns="http://www.w3.org/2000/svg">
<g clip-path="url(#clip0)">
<path d="M16 3.6001H0V5.6001H16V3.6001Z" fill="#202124"/>
<path d="M13.774 7.6001H0V9.6001H11.514C12.124 8.7901 12.891 8.1081 13.774 7.6001Z" fill="#202124"/>
<path d="M0 11.6001V13.6001H10.025C10.071 12.9031 10.212 12.2331 10.437 11.6001H0Z" fill="#202124"/>
<path d="M17.5 20.6001C21.084 20.6001 24 17.6841 24 14.1001C24 10.5161 21.084 7.6001 17.5 7.6001C13.916 7.6001 11 10.5161 11 14.1001C11 15.5671 11.494 16.9171 12.317 18.0061L11.604 18.7201L8.064 22.2601C7.673 22.6511 7.673 23.2831 8.064 23.6741C8.259 23.8691 8.515 23.9671 8.771 23.9671C9.027 23.9671 9.283 23.8691 9.478 23.6741L13.038 20.1141L13.751 19.4011C14.811 20.1531 16.103 20.6001 17.5 20.6001ZM17.5 9.6001C19.981 9.6001 22 11.6191 22 14.1001C22 16.5811 19.981 18.6001 17.5 18.6001C15.019 18.6001 13 16.5811 13 14.1001C13 11.6191 15.019 9.6001 17.5 9.6001Z" fill="#202124"/>
</g>
<defs>
<clipPath id="clip0">
<rect width="24" height="20.367" fill="white" transform="translate(0 3.6001)"/>
</clipPath>
</defs>
</svg>
