<svg width="96" height="97" viewBox="0 0 96 97" fill="none" xmlns="http://www.w3.org/2000/svg">
          <circle cx="48" cy="48.1484" r="48" fill="white"/>
          <path fill-rule="evenodd" clip-rule="evenodd" d="M47.9807 33.6386C45.4799 33.6386 43.4526 35.6659 43.4526 38.1667C43.4526 40.6676 45.4799 42.6949 47.9807 42.6949C50.4815 42.6949 52.5088 40.6676 52.5088 38.1667C52.5088 35.6659 50.4815 33.6386 47.9807 33.6386ZM39.8301 38.1667C39.8301 33.6653 43.4792 30.0161 47.9807 30.0161C52.4822 30.0161 56.1313 33.6653 56.1313 38.1667C56.1313 42.6682 52.4822 46.3174 47.9807 46.3174C43.4792 46.3174 39.8301 42.6682 39.8301 38.1667Z" fill="#0061FF"/>
          <path fill-rule="evenodd" clip-rule="evenodd" d="M32.5835 42.6948C31.083 42.6948 29.8666 43.9112 29.8666 45.4116C29.8666 46.9121 31.083 48.1285 32.5835 48.1285C34.084 48.1285 35.3004 46.9121 35.3004 45.4116C35.3004 43.9112 34.084 42.6948 32.5835 42.6948ZM26.2441 45.4116C26.2441 41.9105 29.0824 39.0723 32.5835 39.0723C36.0847 39.0723 38.9229 41.9105 38.9229 45.4116C38.9229 48.9128 36.0847 51.751 32.5835 51.751C29.0824 51.751 26.2441 48.9128 26.2441 45.4116Z" fill="#052855"/>
          <path fill-rule="evenodd" clip-rule="evenodd" d="M63.3765 42.6948C61.876 42.6948 60.6596 43.9112 60.6596 45.4116C60.6596 46.9121 61.876 48.1285 63.3765 48.1285C64.877 48.1285 66.0934 46.9121 66.0934 45.4116C66.0934 43.9112 64.877 42.6948 63.3765 42.6948ZM57.0371 45.4116C57.0371 41.9105 59.8753 39.0723 63.3765 39.0723C66.8776 39.0723 69.7159 41.9105 69.7159 45.4116C69.7159 48.9128 66.8776 51.751 63.3765 51.751C59.8753 51.751 57.0371 48.9128 57.0371 45.4116Z" fill="#052855"/>
          <path fill-rule="evenodd" clip-rule="evenodd" d="M63.3747 57.2288C62.1855 57.2288 61.0451 57.7012 60.2042 58.5421C59.3633 59.383 58.8909 60.5234 58.8909 61.7126V64.3851H67.8584V61.7126C67.8584 60.5234 67.386 59.383 66.5452 58.5421C65.7043 57.7012 64.5639 57.2288 63.3747 57.2288ZM57.5799 55.9178C59.1168 54.381 61.2012 53.5176 63.3747 53.5176C65.5481 53.5176 67.6326 54.381 69.1694 55.9178C70.7063 57.4547 71.5697 59.5391 71.5697 61.7126V66.0886C71.5697 66.6211 71.3581 67.1318 70.9816 67.5083C70.6051 67.8848 70.0944 68.0963 69.5619 68.0963H57.1875C56.6549 68.0963 56.1443 67.8848 55.7678 67.5083C55.3912 67.1318 55.1797 66.6211 55.1797 66.0886V61.7126C55.1797 59.5391 56.0431 57.4547 57.5799 55.9178Z" fill="#052855"/>
          <path fill-rule="evenodd" clip-rule="evenodd" d="M32.5837 57.2288C31.3945 57.2288 30.254 57.7012 29.4132 58.5421C28.5723 59.383 28.0999 60.5234 28.0999 61.7126V64.3851H37.0674V61.7126C37.0674 60.5234 36.595 59.383 35.7542 58.5421C34.9133 57.7012 33.7728 57.2288 32.5837 57.2288ZM26.7889 55.9178C28.3258 54.381 30.4102 53.5176 32.5837 53.5176C34.7571 53.5176 36.8416 54.381 38.3784 55.9178C39.9153 57.4547 40.7787 59.5391 40.7787 61.7126V66.0886C40.7787 66.6211 40.5671 67.1318 40.1906 67.5083C39.8141 67.8848 39.3034 68.0963 38.7709 68.0963H26.3964C25.8639 68.0963 25.3533 67.8848 24.9767 67.5083C24.6002 67.1317 24.3887 66.6211 24.3887 66.0886V61.7126C24.3887 59.5391 25.2521 57.4547 26.7889 55.9178Z" fill="#052855"/>
          <path fill-rule="evenodd" clip-rule="evenodd" d="M47.9808 51.7509C46.0593 51.7509 44.2165 52.5142 42.8578 53.8729C41.4991 55.2316 40.7358 57.0744 40.7358 58.9959V64.4297H55.2258V58.9959C55.2258 57.0744 54.4625 55.2316 53.1038 53.8729C51.7451 52.5142 49.9023 51.7509 47.9808 51.7509ZM40.2963 51.3114C42.3344 49.2734 45.0985 48.1284 47.9808 48.1284C50.863 48.1284 53.6272 49.2734 55.6653 51.3114C57.7033 53.3495 58.8483 56.1137 58.8483 58.9959V66.2409C58.8483 67.2412 58.0374 68.0522 57.037 68.0522H38.9245C37.9242 68.0522 37.1133 67.2412 37.1133 66.2409V58.9959C37.1133 56.1137 38.2582 53.3495 40.2963 51.3114Z" fill="#0061FF"/>
        </svg>