<svg width="96" height="96" viewBox="0 0 96 96" fill="none" xmlns="http://www.w3.org/2000/svg">
          <circle cx="48" cy="48" r="48" fill="white"/>
          <path d="M47.8203 26.2642L47.8203 69.7359" stroke="#0061FF" stroke-width="4" stroke-linecap="round"/>
          <path d="M27.8945 40.7549L67.7436 40.7549" stroke="#0061FF" stroke-width="4" stroke-linecap="round"/>
          <path d="M27.8945 55.2454L67.7436 55.2454" stroke="#0061FF" stroke-width="4" stroke-linecap="round"/>
          <path d="M59.4042 48.0003C59.4042 54.2159 57.9465 59.745 55.6929 63.6512C53.4087 67.6104 50.5529 69.5475 47.8193 69.5475C45.0857 69.5475 42.2298 67.6104 39.9457 63.6512C37.6921 59.745 36.2344 54.2159 36.2344 48.0003C36.2344 41.7847 37.6921 36.2556 39.9457 32.3494C42.2298 28.3901 45.0857 26.4531 47.8193 26.4531C50.5529 26.4531 53.4087 28.3901 55.6929 32.3494C57.9465 36.2556 59.4042 41.7847 59.4042 48.0003Z" stroke="#0061FF" stroke-width="4"/>
          <circle cx="47.8206" cy="48.0003" r="21.5472" stroke="#052855" stroke-width="4"/>
        </svg>