<svg width="96" height="96" viewBox="0 0 96 96" fill="none" xmlns="http://www.w3.org/2000/svg">
          <circle cx="48" cy="48" r="48" fill="white"/>
          <path fill-rule="evenodd" clip-rule="evenodd" d="M47.0963 22.9235C47.6559 22.6004 48.3453 22.6004 48.9048 22.9235L69.2649 34.6787C69.8244 35.0017 70.1691 35.5988 70.1691 36.2449C70.1691 36.891 69.8244 37.488 69.2649 37.8111L49.8091 49.0442V71.5105C49.8091 72.1566 49.4644 72.7537 48.9048 73.0767C48.3452 73.3998 47.6558 73.3998 47.0963 73.0767L26.7363 61.3215C26.1767 60.9984 25.832 60.4014 25.832 59.7553V36.2449C25.832 35.5988 26.1767 35.0017 26.7363 34.6787L47.0963 22.9235ZM29.449 37.289V58.7112L46.1921 68.3781V48.0001C46.1921 47.354 46.5368 46.757 47.0963 46.4339L64.7437 36.2449L48.0006 26.5779L29.449 37.289Z" fill="#052855"/>
          <path fill-rule="evenodd" clip-rule="evenodd" d="M26.0746 35.3406C26.5741 34.4756 27.6801 34.1792 28.5451 34.6786L48.9051 46.4339C49.7701 46.9333 50.0665 48.0393 49.5671 48.9043C49.0676 49.7693 47.9616 50.0657 47.0966 49.5662L26.7366 37.811C25.8716 37.3116 25.5752 36.2055 26.0746 35.3406Z" fill="#052855"/>
          <path fill-rule="evenodd" clip-rule="evenodd" d="M55.2344 66.0854C55.2344 65.0865 56.0441 64.2769 57.0429 64.2769H63.0145C64.0133 64.2769 64.823 65.0865 64.823 66.0854C64.823 67.0842 64.0133 67.8938 63.0145 67.8938H57.0429C56.0441 67.8938 55.2344 67.0842 55.2344 66.0854Z" fill="#0061FF"/>
          <path fill-rule="evenodd" clip-rule="evenodd" d="M55.2344 57.9467C55.2344 56.9479 56.0441 56.1382 57.0429 56.1382H69.3117C70.3105 56.1382 71.1202 56.9479 71.1202 57.9467C71.1202 58.9455 70.3105 59.7552 69.3117 59.7552H57.0429C56.0441 59.7552 55.2344 58.9455 55.2344 57.9467Z" fill="#0061FF"/>
          <path fill-rule="evenodd" clip-rule="evenodd" d="M55.2344 49.8085C55.2344 48.8097 56.0441 48 57.0429 48H69.3117C70.3105 48 71.1202 48.8097 71.1202 49.8085C71.1202 50.8073 70.3105 51.617 69.3117 51.617H57.0429C56.0441 51.617 55.2344 50.8073 55.2344 49.8085Z" fill="#0061FF"/>
        </svg>