<?xml version="1.0" encoding="utf-8"?>
<!-- Generator: Adobe Illustrator 24.0.3, SVG Export Plug-In . SVG Version: 6.00 Build 0)  -->
<svg version="1.1" id="Layer_1" xmlns="http://www.w3.org/2000/svg" xmlns:xlink="http://www.w3.org/1999/xlink" x="0px" y="0px"
	 viewBox="0 0 1000 1000" style="enable-background:new 0 0 1000 1000;" xml:space="preserve">
<style type="text/css">
	.st0{fill:#2A65FD;stroke:#2A65FD;stroke-width:7;stroke-miterlimit:10;}
</style>
<g id="ptQr4h.tif">
	<g>
		<path class="st0" d="M865.7,511.4c-52.2,0-100.9,0-149.6,0c-200.7,0-401.5,0-602.2,0c-2.7,0-6.2,0.9-8-0.5
			c-3.4-2.6-8.1-6.5-8.1-9.8c0-3.4,4.4-8.6,7.9-9.8c5.2-1.7,11.4-0.7,17.2-0.7c243,0,486,0,729,0c3.6,0,7.1,0,13.7,0
			c-4.8-5-7.4-7.9-10.2-10.6c-92.8-92.8-185.5-185.6-278.3-278.4c-0.7-0.7-1.5-1.4-2.2-2.1c-5.6-5.4-11.6-11.5-4-18.9
			c7.3-7.1,13.5-1.8,19.2,3.9C691.5,286,793,387.5,894.4,488.9c10.5,10.5,10.5,13.8,0,24.3C792.9,614.6,691.5,716.1,590,817.6
			c-1.9,1.9-3.9,5.1-6,5.2c-4.6,0.3-10.6,0.4-13.5-2.2c-2.2-2-1.4-8.6-0.2-12.6c0.8-2.9,4.4-5,6.8-7.4
			c92.8-92.8,185.5-185.6,278.3-278.4C858.2,519.4,860.8,516.5,865.7,511.4z"/>
	</g>
</g>
</svg>
